<?xml version="1.0" standalone="no"?>
<!DOCTYPE svg PUBLIC "-//W3C//DTD SVG 20010904//EN"
 "http://www.w3.org/TR/2001/REC-SVG-20010904/DTD/svg10.dtd">
<svg version="1.0" xmlns="http://www.w3.org/2000/svg"
 width="260.000000pt" height="260.000000pt" viewBox="0 0 260.000000 260.000000"
 preserveAspectRatio="xMidYMid meet">
<metadata>
Created by potrace 1.14, written by Peter Selinger 2001-2017
</metadata>
<g transform="translate(0.000000,260.000000) scale(0.100000,-0.100000)"
fill="#000000" stroke="none">
<path d="M309 2551 c-75 -47 -97 -127 -58 -208 58 -120 230 -119 289 3 42 86
5 182 -85 220 -53 22 -96 17 -146 -15z"/>
<path d="M695 2560 c-119 -59 -119 -232 0 -290 40 -19 131 -21 144 -3 3 5 18
16 32 25 61 39 77 151 30 217 -28 38 -89 71 -133 71 -18 0 -51 -9 -73 -20z"/>
<path d="M1064 2560 c-113 -57 -114 -231 -1 -288 110 -56 236 19 239 141 2
121 -130 202 -238 147z"/>
<path d="M1436 2558 c-60 -35 -81 -70 -83 -137 -1 -47 3 -65 23 -95 68 -100
202 -98 275 5 44 63 17 182 -52 223 -49 29 -118 31 -163 4z"/>
<path d="M324 2186 c-74 -33 -113 -138 -79 -210 47 -99 180 -126 258 -53 40
38 49 57 52 113 3 47 -25 106 -66 136 -34 25 -124 33 -165 14z"/>
<path d="M715 2193 c-112 -28 -147 -195 -58 -275 27 -24 103 -42 146 -34 51
10 113 70 122 119 24 127 -81 222 -210 190z"/>
<path d="M1450 2189 c-92 -37 -128 -151 -74 -235 30 -46 61 -63 126 -71 37 -4
55 0 88 18 146 82 89 301 -78 298 -20 0 -48 -5 -62 -10z"/>
<path d="M1835 2193 c-29 -8 -66 -39 -87 -74 -55 -90 4 -219 107 -234 60 -10
100 1 139 38 45 42 63 103 48 156 -29 94 -109 138 -207 114z"/>
<path d="M325 1813 c-115 -60 -127 -217 -20 -283 105 -65 240 1 251 123 11
120 -127 215 -231 160z"/>
<path d="M695 1810 c-100 -50 -120 -174 -42 -258 75 -79 208 -59 258 39 41 82
10 178 -71 219 -50 25 -94 25 -145 0z"/>
<path d="M1824 1816 c-82 -36 -120 -133 -84 -214 66 -147 274 -121 304 37 23
123 -106 226 -220 177z"/>
<path d="M2195 1815 c-87 -47 -119 -131 -83 -216 51 -119 220 -127 286 -13 44
76 9 195 -66 226 -47 19 -105 20 -137 3z"/>
<path d="M323 1439 c-79 -40 -114 -139 -74 -216 80 -158 315 -97 306 79 -6
117 -128 189 -232 137z"/>
<path d="M710 1448 c-63 -24 -111 -101 -105 -168 13 -128 159 -193 260 -116
119 91 61 281 -88 291 -23 1 -53 -2 -67 -7z"/>
<path d="M1825 1444 c-38 -16 -70 -50 -88 -94 -14 -34 -14 -44 -2 -105 16 -82
125 -137 208 -106 80 31 126 134 93 212 -17 41 -77 98 -106 101 -59 5 -78 4
-105 -8z"/>
<path d="M2206 1448 c-117 -43 -145 -195 -51 -277 81 -71 202 -45 249 53 59
125 -70 272 -198 224z"/>
<path d="M358 1080 c-84 -24 -135 -95 -125 -177 5 -49 27 -85 71 -117 21 -16
42 -21 91 -21 74 0 107 19 142 81 67 117 -50 269 -179 234z"/>
<path d="M716 1075 c-49 -17 -75 -41 -96 -89 -44 -96 11 -202 116 -224 81 -18
175 44 190 125 23 124 -93 228 -210 188z"/>
<path d="M1858 1080 c-112 -20 -167 -148 -105 -246 56 -90 192 -100 255 -19
95 120 -2 291 -150 265z"/>
<path d="M2230 1080 c-72 -12 -130 -82 -132 -158 -3 -85 75 -162 163 -162 77
0 146 60 156 137 15 111 -78 202 -187 183z"/>
<path d="M1855 708 c-76 -16 -127 -80 -127 -158 1 -111 89 -180 199 -158 49
10 112 75 115 117 1 14 2 35 3 46 6 92 -94 173 -190 153z"/>
<path d="M324 696 c-97 -43 -122 -186 -45 -260 76 -73 183 -64 248 21 37 48
39 133 5 181 -48 66 -133 90 -208 58z"/>
<path d="M692 693 c-108 -53 -118 -202 -18 -278 28 -21 46 -26 91 -26 74 0
127 34 151 97 54 141 -89 274 -224 207z"/>
<path d="M1445 696 c-56 -25 -88 -70 -93 -129 -8 -103 61 -181 161 -178 78 1
128 37 152 108 45 131 -92 256 -220 199z"/>
<path d="M334 325 c-36 -16 -79 -61 -93 -98 -41 -107 55 -228 169 -213 86 12
155 90 146 167 -2 19 -4 39 -5 46 -2 19 -51 73 -82 89 -39 20 -100 24 -135 9z"/>
<path d="M717 325 c-50 -17 -76 -41 -97 -89 -35 -76 -1 -169 75 -205 107 -51
235 27 235 142 0 48 -12 76 -46 111 -48 48 -106 62 -167 41z"/>
<path d="M1083 325 c-123 -52 -144 -200 -40 -279 101 -77 257 -3 257 121 0 25
-7 60 -16 78 -32 68 -133 108 -201 80z"/>
<path d="M1465 327 c-105 -34 -149 -152 -90 -240 106 -155 350 -39 290 137
-30 86 -116 130 -200 103z"/>
</g>
</svg>
