<?xml version="1.0" standalone="no"?>
<!DOCTYPE svg PUBLIC "-//W3C//DTD SVG 20010904//EN"
 "http://www.w3.org/TR/2001/REC-SVG-20010904/DTD/svg10.dtd">
<svg version="1.0" xmlns="http://www.w3.org/2000/svg"
 width="512.000000pt" height="512.000000pt" viewBox="0 0 512.000000 512.000000"
 preserveAspectRatio="xMidYMid meet">
<metadata>
Created by potrace 1.14, written by Peter Selinger 2001-2017
</metadata>
<g transform="translate(0.000000,512.000000) scale(0.100000,-0.100000)"
fill="#000000" stroke="none">
<path d="M714 5098 c-99 -34 -172 -108 -207 -210 -17 -51 -17 -161 0 -193 6
-11 11 -23 12 -28 4 -38 108 -157 137 -157 8 0 14 -4 14 -8 0 -11 78 -33 131
-36 56 -4 144 18 189 48 75 50 140 141 144 201 0 14 4 25 7 25 7 0 4 86 -5
127 -30 134 -161 243 -300 248 -43 2 -82 -4 -122 -17z"/>
<path d="M1475 5106 c-61 -19 -97 -40 -144 -86 -46 -45 -94 -136 -90 -172 1
-13 -1 -30 -4 -38 -5 -12 -3 -75 3 -75 1 0 3 -11 6 -25 14 -81 99 -182 183
-217 64 -27 132 -33 201 -19 19 4 41 8 48 8 6 1 12 5 12 9 0 4 11 9 24 13 38
9 115 91 144 153 36 76 36 191 2 268 -31 68 -113 145 -179 169 -64 23 -153 28
-206 12z"/>
<path d="M2200 5099 c-80 -28 -155 -91 -181 -151 -6 -16 -16 -28 -21 -28 -5 0
-7 -4 -4 -9 4 -5 2 -21 -4 -36 -9 -24 -12 -56 -9 -120 1 -33 31 -125 40 -125
5 0 9 -5 9 -12 0 -19 97 -106 138 -124 54 -23 70 -26 135 -27 56 0 167 29 167
45 0 4 5 8 11 8 21 0 95 84 119 135 35 73 35 200 1 269 -43 88 -110 148 -194
175 -62 21 -148 21 -207 0z"/>
<path d="M2956 5103 c-91 -27 -163 -89 -206 -178 -18 -38 -24 -68 -26 -127 -1
-69 2 -85 33 -147 32 -67 101 -141 132 -141 6 0 11 -4 11 -8 0 -11 81 -34 127
-36 34 -2 100 8 128 18 6 2 20 7 33 11 12 4 22 12 22 17 0 5 5 6 10 3 6 -3 13
1 16 9 3 9 12 16 20 16 8 0 14 3 14 8 0 4 12 21 28 37 44 49 62 94 76 199 2
18 -3 49 -18 113 -16 70 -117 172 -201 203 -47 18 -145 19 -199 3z"/>
<path d="M745 4355 c-71 -16 -111 -40 -164 -95 -148 -155 -100 -412 94 -505
54 -26 69 -29 150 -29 55 0 83 6 128 27 60 27 147 106 147 132 0 8 4 15 8 15
23 0 43 144 29 213 -35 169 -219 283 -392 242z"/>
<path d="M1497 4359 c-21 -5 -57 -18 -80 -28 -45 -21 -117 -83 -117 -100 0 -6
-4 -11 -8 -11 -22 0 -63 -142 -58 -200 16 -170 167 -303 338 -296 129 6 225
69 284 186 68 135 17 313 -113 399 -72 48 -167 67 -246 50z"/>
<path d="M2996 4363 c-2 -2 -14 -6 -27 -8 -104 -19 -206 -118 -234 -226 -45
-171 56 -352 220 -394 87 -22 219 -4 272 38 41 31 104 104 109 124 4 13 9 23
13 23 4 0 8 6 9 13 0 6 4 26 7 42 19 83 -3 194 -50 253 -46 59 -126 114 -186
127 -36 9 -127 14 -133 8z"/>
<path d="M3779 4366 c-3 -3 -19 -8 -35 -10 -52 -6 -94 -18 -94 -27 0 -5 -6 -9
-14 -9 -26 0 -107 -89 -133 -146 -71 -156 -1 -347 156 -421 74 -35 191 -38
263 -5 114 51 188 162 192 286 2 79 -6 109 -46 177 -40 69 -122 130 -189 143
-13 2 -40 7 -59 11 -19 3 -38 4 -41 1z"/>
<path d="M815 3620 c-11 -4 -24 -5 -28 -3 -14 8 -99 -19 -139 -43 -149 -93
-196 -279 -113 -441 9 -18 21 -33 26 -33 5 0 9 -7 9 -15 0 -8 9 -19 19 -25 11
-5 25 -16 33 -23 72 -68 226 -86 333 -37 70 32 156 125 171 185 15 58 24 142
16 150 -3 3 -7 18 -8 34 -2 30 -38 106 -59 128 -7 7 -15 16 -17 20 -12 29
-119 89 -172 97 -21 4 -41 8 -45 10 -3 2 -15 0 -26 -4z"/>
<path d="M1548 3624 c-3 -3 -21 -7 -39 -10 -19 -2 -41 -5 -49 -7 -28 -5 -104
-55 -136 -89 -31 -34 -80 -118 -68 -118 4 0 1 -6 -6 -14 -14 -17 -22 -136 -9
-136 4 0 6 -7 3 -15 -8 -21 37 -114 80 -161 81 -92 234 -128 353 -83 68 26
146 97 178 163 92 187 -28 427 -231 461 -21 4 -46 9 -55 11 -8 2 -18 2 -21 -2z"/>
<path d="M3799 3626 c-2 -2 -26 -6 -52 -9 -123 -15 -242 -127 -265 -249 -22
-121 9 -226 92 -306 123 -121 325 -119 449 4 99 99 120 259 52 391 -38 73
-148 152 -221 157 -17 2 -36 6 -41 9 -6 4 -12 5 -14 3z"/>
<path d="M4549 3625 c-3 -2 -26 -5 -52 -6 -26 -2 -47 -7 -47 -11 0 -5 -6 -8
-12 -6 -32 6 -168 -98 -168 -129 0 -7 -5 -13 -11 -13 -5 0 -7 -4 -4 -10 3 -5
2 -10 -3 -10 -11 0 -36 -103 -36 -145 2 -93 33 -165 101 -232 67 -66 122 -88
223 -88 98 0 154 22 222 88 124 120 127 335 8 455 -51 51 -115 88 -169 97 -19
3 -37 8 -41 10 -4 3 -9 3 -11 0z"/>
<path d="M733 2868 c-24 -5 -43 -14 -43 -19 0 -6 -4 -8 -9 -5 -12 8 -103 -65
-128 -101 -92 -136 -78 -303 35 -420 22 -23 50 -44 61 -48 12 -3 21 -11 21
-16 0 -6 5 -7 10 -4 6 3 10 1 10 -5 0 -6 5 -8 10 -5 6 4 17 1 25 -5 8 -7 15
-10 15 -8 0 3 19 2 41 -2 75 -14 208 27 241 75 5 6 8 6 8 0 0 -5 8 2 18 18 10
15 22 24 25 20 4 -3 7 1 7 10 0 10 5 17 10 17 6 0 10 7 10 15 0 8 5 15 12 15
6 0 9 3 5 6 -3 4 0 23 8 43 20 49 24 104 13 160 -6 25 -10 52 -11 59 0 6 -4
12 -8 12 -4 0 -10 11 -13 24 -10 39 -89 114 -151 142 -62 29 -149 37 -222 22z"/>
<path d="M1475 2866 c-22 -7 -56 -21 -75 -30 -40 -20 -120 -102 -120 -122 0
-8 -4 -14 -9 -14 -5 0 -12 -15 -16 -32 -4 -18 -8 -35 -9 -38 -1 -3 -4 -9 -7
-15 -12 -19 -1 -131 16 -175 19 -47 52 -96 88 -132 25 -24 132 -75 162 -77 66
-4 141 0 153 9 1 2 5 3 10 4 27 6 88 44 121 77 60 58 95 139 96 224 3 150 -82
268 -230 320 -36 13 -139 13 -180 1z"/>
<path d="M3707 2865 c-227 -61 -310 -367 -144 -535 72 -73 137 -102 230 -101
65 0 84 4 138 30 139 64 211 219 174 377 -19 82 -91 173 -163 205 -18 7 -32
16 -32 19 0 15 -152 18 -203 5z"/>
<path d="M4465 2870 c-51 -11 -115 -49 -161 -96 -25 -24 -42 -44 -39 -44 3 0
-2 -11 -11 -25 -9 -14 -13 -25 -9 -25 4 0 2 -6 -4 -14 -17 -21 -35 -139 -23
-151 3 -3 7 -19 9 -35 4 -38 43 -117 76 -151 30 -33 90 -70 140 -88 51 -17
165 -16 195 2 6 5 12 6 12 2 0 -3 19 7 42 21 115 73 169 172 164 302 -7 167
-137 301 -299 307 -34 1 -75 -1 -92 -5z"/>
<path d="M753 2129 c-129 -24 -240 -145 -259 -280 -14 -104 42 -234 129 -300
111 -83 256 -87 376 -9 52 33 116 115 127 165 4 17 10 35 14 40 18 27 -2 161
-33 214 -78 134 -209 198 -354 170z"/>
<path d="M1485 2125 c-67 -15 -103 -36 -154 -86 -83 -84 -118 -211 -84 -312 7
-20 12 -40 12 -42 2 -31 109 -155 135 -155 7 0 17 -5 24 -12 21 -21 76 -33
148 -33 122 1 224 65 284 177 29 54 33 71 34 142 1 68 -3 90 -25 137 -68 145
-221 220 -374 184z"/>
<path d="M3735 2132 c-46 -8 -133 -57 -168 -93 -169 -179 -94 -473 138 -542
198 -58 405 91 408 296 2 83 -6 116 -39 178 -51 92 -155 157 -261 163 -32 1
-67 1 -78 -2z"/>
<path d="M4469 2129 c-90 -20 -186 -97 -217 -174 -9 -22 -16 -43 -14 -47 1 -5
-2 -8 -6 -8 -10 0 -11 -11 -13 -96 0 -34 5 -73 12 -85 7 -13 11 -25 10 -27 -5
-7 33 -71 61 -102 32 -34 118 -96 118 -85 0 3 9 1 20 -5 61 -33 199 -14 273
37 92 63 140 150 143 261 2 88 -13 138 -61 204 -75 102 -205 153 -326 127z"/>
<path d="M770 1388 c-218 -33 -342 -269 -243 -466 32 -63 97 -126 161 -155 71
-32 199 -30 267 3 166 83 236 281 155 440 -22 43 -35 61 -58 83 -7 7 -21 19
-30 28 -53 51 -164 80 -252 67z"/>
<path d="M1468 1377 c-35 -10 -64 -23 -66 -28 -2 -5 -10 -9 -17 -9 -16 0 -70
-54 -100 -100 -46 -72 -63 -183 -39 -253 7 -20 13 -41 14 -45 1 -23 65 -105
102 -133 64 -47 105 -61 183 -65 160 -7 282 82 333 243 10 30 9 123 -2 171
-11 49 -67 127 -122 172 -28 22 -87 49 -96 44 -4 -3 -8 -1 -8 3 0 5 -15 10
-32 12 -18 1 -45 4 -60 5 -16 1 -56 -6 -90 -17z"/>
<path d="M2977 1384 c-71 -18 -108 -38 -155 -85 -70 -68 -95 -128 -96 -229 -1
-73 3 -93 26 -141 36 -71 89 -125 158 -158 111 -52 268 -28 356 55 35 33 78
92 80 112 2 7 6 21 10 30 15 35 20 121 10 169 -9 43 -44 110 -76 146 -31 35
-104 85 -132 91 -7 2 -24 6 -38 9 -52 13 -97 13 -143 1z"/>
<path d="M3750 1388 c0 -4 -8 -7 -17 -7 -16 0 -48 -6 -63 -11 -3 -1 -8 -2 -12
-1 -5 0 -8 -3 -8 -8 0 -5 -9 -12 -19 -16 -26 -8 -99 -81 -118 -119 -112 -216
34 -475 270 -483 144 -4 262 76 318 217 23 59 17 176 -13 240 -43 93 -126 162
-218 184 -39 10 -120 12 -120 4z"/>
<path d="M807 644 c-3 -3 -22 -8 -42 -10 -94 -9 -194 -84 -243 -183 -35 -73
-37 -181 -4 -254 11 -26 21 -50 21 -53 1 -14 98 -96 139 -116 39 -19 63 -23
142 -23 84 1 101 4 145 28 28 14 59 35 71 45 28 24 94 119 87 125 -3 3 -1 12
3 19 14 21 16 40 16 106 -1 35 -6 69 -11 76 -6 7 -8 16 -5 19 3 3 -3 19 -15
35 -12 17 -21 33 -21 37 0 13 -83 89 -117 108 -18 10 -33 15 -33 11 0 -3 -6
-1 -13 5 -8 6 -32 13 -54 15 -23 2 -45 6 -51 10 -5 3 -12 3 -15 0z"/>
<path d="M1550 643 c0 -4 -12 -8 -27 -9 -16 0 -39 -3 -53 -6 -28 -6 -103 -48
-108 -60 -2 -4 -10 -8 -18 -8 -8 0 -14 -4 -14 -8 0 -5 -13 -24 -30 -42 -16
-18 -30 -38 -30 -42 0 -5 -8 -26 -19 -47 -12 -26 -15 -44 -9 -55 5 -10 5 -16
0 -16 -10 0 -9 -80 1 -96 3 -6 8 -22 11 -36 5 -28 47 -99 75 -126 68 -65 126
-87 236 -87 76 0 98 4 139 25 115 58 180 163 181 290 0 103 -35 177 -118 247
-27 23 -85 56 -102 58 -5 1 -12 3 -15 4 -3 1 -22 4 -42 6 -20 1 -41 6 -47 10
-6 3 -11 3 -11 -2z"/>
<path d="M2308 644 c-3 -2 -21 -6 -39 -8 -82 -9 -140 -37 -200 -96 -39 -38
-80 -117 -83 -155 0 -14 -4 -25 -7 -25 -7 0 -3 -56 6 -69 3 -6 0 -11 -7 -11
-8 0 -9 -3 -3 -8 6 -4 12 -18 13 -32 4 -27 42 -103 55 -108 4 -2 7 -8 7 -13 0
-13 62 -68 78 -69 6 0 12 -4 12 -10 0 -5 8 -10 18 -10 10 0 24 -6 30 -12 16
-16 212 -21 212 -6 0 6 6 8 14 5 8 -3 20 1 26 9 7 8 16 14 21 14 4 0 25 11 45
25 20 14 34 25 30 25 -4 0 4 11 17 24 80 80 97 227 41 353 -17 37 -100 123
-119 123 -7 0 -15 5 -17 11 -2 5 -10 11 -18 13 -8 2 -22 6 -30 9 -8 3 -29 8
-47 11 -17 2 -36 7 -41 10 -5 3 -12 3 -14 0z"/>
<path d="M3040 643 c0 -5 -12 -8 -27 -7 -34 1 -113 -25 -131 -43 -7 -7 -18
-13 -23 -13 -19 0 -81 -75 -107 -130 -22 -46 -27 -69 -26 -135 0 -95 25 -156
91 -221 38 -38 123 -92 123 -78 0 4 6 2 13 -3 28 -22 237 -7 237 17 0 4 11 11
25 14 14 4 25 11 25 16 0 6 7 10 15 10 8 0 15 3 15 8 0 4 14 22 31 40 17 18
32 39 33 46 1 8 7 20 13 27 6 8 12 17 12 22 1 4 1 8 2 10 12 40 16 137 6 137
-4 0 -6 4 -2 9 7 12 -17 91 -27 91 -5 0 -8 7 -8 14 0 25 -82 103 -136 130 -28
14 -70 28 -92 30 -22 2 -45 7 -51 10 -6 4 -11 3 -11 -1z"/>
</g>
</svg>
